<svg width="514" height="514" viewBox="0 0 514 514" fill="none" xmlns="http://www.w3.org/2000/svg">
<path d="M210.299 80.8592C211.151 80.8535 212.003 80.8477 212.881 80.8419C214.271 80.8402 214.271 80.8402 215.689 80.8385C216.672 80.8335 217.655 80.8285 218.667 80.8234C221.918 80.8088 225.17 80.802 228.421 80.7965C230.683 80.7907 232.945 80.785 235.207 80.7792C239.951 80.7687 244.696 80.7629 249.44 80.7594C255.511 80.7539 261.581 80.7299 267.652 80.7014C272.326 80.6827 276.999 80.6776 281.673 80.676C283.911 80.673 286.148 80.665 288.386 80.6518C291.521 80.6347 294.656 80.6367 297.791 80.6432C298.71 80.6339 299.629 80.6247 300.575 80.6152C307.586 80.6605 313.841 81.6675 319.124 86.6871C321.711 90.0553 323.104 93.5456 324.565 97.5191C324.817 98.2022 325.069 98.8853 325.328 99.5891C329.388 110.693 333.239 121.874 337.128 133.039C339.239 139.096 341.356 145.151 343.472 151.207C343.707 151.881 343.943 152.556 344.186 153.251C348.668 166.077 353.2 178.885 357.749 191.687C363.766 208.623 369.689 225.589 375.563 242.575C380.808 257.741 386.126 272.879 391.499 288C397.594 305.149 403.599 322.328 409.546 339.529C415.825 357.683 422.211 375.798 428.644 393.898C428.988 394.869 429.333 395.839 429.689 396.84C430.33 398.644 430.972 400.448 431.615 402.252C437.92 419.984 437.92 419.984 434.874 427.937C432.119 430.967 429.108 432.709 424.99 433.277C422.624 433.389 420.276 433.405 417.908 433.388C417.013 433.393 416.118 433.398 415.195 433.404C412.247 433.417 409.299 433.408 406.351 433.398C404.293 433.4 402.236 433.403 400.179 433.407C395.87 433.411 391.561 433.405 387.252 433.391C381.742 433.374 376.232 433.383 370.722 433.401C366.474 433.412 362.226 433.409 357.977 433.401C355.947 433.399 353.916 433.401 351.885 433.408C349.039 433.416 346.195 433.404 343.349 433.388C342.518 433.394 341.686 433.4 340.83 433.406C334.511 433.338 329.023 432.246 323.871 428.419C318.777 422.53 316.317 416.146 313.757 408.855C313.3 407.595 312.842 406.336 312.382 405.077C311.186 401.791 310.012 398.498 308.842 395.202C307.645 391.841 306.426 388.488 305.21 385.134C298.911 367.735 298.911 367.735 296.999 362C270.599 361.67 244.199 361.34 216.999 361C216.009 364.3 215.019 367.6 213.999 371C213.361 372.903 212.706 374.801 212.025 376.69C211.668 377.684 211.31 378.679 210.942 379.703C209.315 384.173 207.683 388.64 206.04 393.104C205.179 395.452 204.326 397.803 203.48 400.156C202.248 403.582 200.994 406.998 199.733 410.414C199.363 411.457 198.993 412.499 198.612 413.574C196.086 420.318 193.041 427.41 186.313 430.866C181.069 433.071 176.303 433.434 170.665 433.404C169.319 433.414 169.319 433.414 167.947 433.424C165.004 433.443 162.063 433.439 159.12 433.433C157.063 433.438 155.006 433.443 152.95 433.449C148.648 433.458 144.347 433.456 140.046 433.446C134.543 433.434 129.04 433.454 123.537 433.484C119.293 433.502 115.049 433.502 110.805 433.496C108.776 433.496 106.747 433.502 104.718 433.514C101.879 433.529 99.0423 433.518 96.2039 433.501C95.372 433.511 94.5401 433.521 93.683 433.531C88.0082 433.459 84.6203 432.362 79.9991 429C76.9868 424.824 77.5065 419.929 77.9991 415C78.8402 411.339 80.0551 407.863 81.3389 404.336C81.8686 402.822 81.8686 402.822 82.4089 401.278C83.5701 397.972 84.7532 394.673 85.9366 391.375C86.7602 389.043 87.5823 386.71 88.4031 384.377C90.512 378.395 92.6387 372.419 94.7709 366.445C96.6502 361.173 98.5162 355.897 100.382 350.621C102.475 344.705 104.569 338.789 106.671 332.876C111.681 318.774 116.608 304.644 121.499 290.5C126.997 274.601 132.554 258.726 138.187 242.875C144.314 225.627 150.383 208.359 156.411 191.076C157.574 187.744 158.737 184.411 159.901 181.079C164.129 168.971 168.355 156.863 172.559 144.747C174.398 139.447 176.242 134.147 178.09 128.85C179.174 125.738 180.256 122.625 181.333 119.51C182.519 116.081 183.713 112.655 184.909 109.23C185.251 108.235 185.593 107.24 185.945 106.215C192.685 87.0175 192.685 87.0175 201.999 81.9996C204.823 81.1507 207.356 80.871 210.299 80.8592ZM205.999 98.9996C204.877 101.254 204.877 101.254 204.001 103.973C203.635 105.021 203.269 106.069 202.891 107.149C202.307 108.873 202.307 108.873 201.71 110.632C201.073 112.47 200.436 114.307 199.798 116.144C199.118 118.11 198.444 120.078 197.771 122.046C196.364 126.158 194.944 130.264 193.522 134.37C192.072 138.555 190.623 142.74 189.178 146.927C185.273 158.239 181.293 169.524 177.278 180.797C170.905 198.697 164.641 216.633 158.43 234.589C152.949 250.434 147.387 266.248 141.773 282.046C134.976 301.181 128.277 320.35 121.596 339.526C116.704 353.567 111.799 367.603 106.819 381.613C106.416 382.747 106.013 383.881 105.598 385.05C103.712 390.355 101.821 395.659 99.9249 400.961C99.2646 402.813 98.6045 404.666 97.9444 406.519C97.6424 407.359 97.3405 408.198 97.0294 409.063C95.5402 412.935 95.5402 412.935 94.9991 417C99.7862 417.074 104.573 417.128 109.361 417.164C110.989 417.179 112.618 417.2 114.246 417.226C116.587 417.262 118.928 417.279 121.269 417.293C122.361 417.316 122.361 417.316 123.475 417.339C127.41 417.357 127.41 417.357 130.888 415.714C132.051 413.919 132.815 412.303 133.499 410.277C133.747 409.574 133.994 408.871 134.249 408.146C134.75 406.67 135.25 405.193 135.749 403.716C137.693 398.204 137.693 398.204 140.999 396C146.967 395.467 146.967 395.467 149.937 397C152.099 401.069 151.44 405.332 150.306 409.62C149.895 410.935 149.895 410.935 149.476 412.277C149.201 413.165 148.926 414.053 148.642 414.968C148.43 415.639 148.218 416.309 147.999 417C152.198 417.148 156.396 417.257 160.597 417.329C162.025 417.359 163.453 417.4 164.88 417.452C166.936 417.525 168.989 417.559 171.046 417.586C172.282 417.617 173.518 417.648 174.791 417.681C178.163 417.291 178.163 417.291 180.195 414.588C182.587 410.288 184.182 405.625 185.819 401C186.336 399.569 186.336 399.569 186.864 398.109C187.958 395.075 189.041 392.037 190.124 389C190.859 386.958 191.595 384.916 192.331 382.875C193.681 379.126 195.028 375.377 196.367 371.625C196.634 370.874 196.902 370.124 197.178 369.351C198.147 366.577 199.07 363.787 199.999 361C189.439 361 178.879 361 167.999 361C166.349 365.29 164.699 369.58 162.999 374C158.999 377 158.999 377 155.374 376.812C151.999 376 151.999 376 149.999 374C149.395 367.488 150.827 362.626 153.249 356.625C153.549 355.819 153.85 355.013 154.159 354.183C154.462 353.414 154.765 352.644 155.077 351.851C155.35 351.158 155.622 350.466 155.902 349.752C157.34 347.455 158.481 346.993 160.999 346C163.726 345.74 163.726 345.74 166.913 345.725C168.123 345.715 169.333 345.705 170.58 345.695C171.917 345.694 173.255 345.694 174.593 345.693C176.004 345.686 177.415 345.677 178.826 345.668C182.657 345.646 186.487 345.637 190.318 345.632C192.711 345.629 195.105 345.622 197.498 345.615C205.849 345.591 214.199 345.578 222.55 345.574C230.333 345.57 238.116 345.541 245.899 345.499C252.583 345.464 259.267 345.449 265.951 345.448C269.942 345.447 273.933 345.438 277.924 345.41C281.678 345.384 285.431 345.381 289.185 345.397C290.562 345.399 291.938 345.393 293.315 345.377C303.915 345.262 303.915 345.262 308.205 348.182C309.996 350.994 311.308 353.535 312.431 356.673C312.838 357.788 313.245 358.903 313.665 360.051C314.296 361.845 314.296 361.845 314.94 363.675C315.627 365.569 316.315 367.463 317.002 369.356C317.958 372.001 318.901 374.65 319.844 377.3C321.719 382.559 323.618 387.81 325.518 393.061C326.175 394.882 326.824 396.707 327.472 398.531C330.536 408.429 330.536 408.429 335.999 417C338.52 417.088 341.013 417.115 343.534 417.097C344.287 417.096 345.041 417.094 345.817 417.093C348.232 417.087 350.647 417.075 353.062 417.062C354.695 417.057 356.329 417.053 357.962 417.048C361.974 417.037 365.987 417.02 369.999 417C368.755 410.739 367.035 404.831 364.858 398.836C364.544 397.956 364.23 397.076 363.906 396.169C363.221 394.25 362.533 392.332 361.843 390.414C359.916 385.058 358.007 379.694 356.097 374.332C355.687 373.184 355.278 372.036 354.856 370.853C350.136 357.608 345.508 344.331 340.881 331.054C339.02 325.714 337.157 320.375 335.294 315.036C334.827 313.697 334.359 312.358 333.892 311.018C329.094 297.264 324.283 283.513 319.463 269.766C318.631 267.391 317.799 265.017 316.967 262.642C316.185 260.41 315.403 258.177 314.62 255.945C313.868 253.802 313.117 251.659 312.368 249.515C310.442 244.022 308.469 238.551 306.427 233.1C305.799 231.407 305.799 231.407 305.158 229.68C304.36 227.536 303.552 225.396 302.731 223.261C300.627 217.587 299.383 213.063 299.999 207C302.187 204.307 303.583 204.06 306.999 203.562C310.746 204.109 311.584 205.151 313.999 208C315.125 210.36 315.125 210.36 316.019 213.016C316.365 214.024 316.711 215.032 317.068 216.07C317.43 217.166 317.793 218.261 318.167 219.39C318.559 220.541 318.951 221.692 319.355 222.878C320.2 225.364 321.041 227.852 321.875 230.342C323.199 234.293 324.539 238.239 325.883 242.183C326.108 242.844 326.334 243.506 326.566 244.187C327.023 245.528 327.48 246.869 327.936 248.21C328.627 250.238 329.316 252.266 330.004 254.294C334.124 266.422 338.384 278.498 342.687 290.562C348.725 307.523 354.665 324.516 360.547 341.532C366.825 359.685 373.211 377.799 379.644 395.898C379.988 396.869 380.333 397.839 380.689 398.84C381.33 400.644 381.972 402.448 382.615 404.252C382.901 405.057 383.187 405.861 383.481 406.69C383.728 407.381 383.974 408.073 384.228 408.786C385.178 411.514 386.085 414.258 386.999 417C397.559 417 408.119 417 418.999 417C416.694 409.246 416.694 409.246 414.184 401.577C413.858 400.63 413.532 399.682 413.196 398.706C412.85 397.707 412.504 396.708 412.148 395.679C411.777 394.604 411.406 393.529 411.024 392.422C409.81 388.905 408.592 385.39 407.374 381.875C406.952 380.654 406.53 379.433 406.094 378.175C400.024 360.627 393.878 343.105 387.659 325.609C381.463 308.176 375.342 290.718 369.249 273.25C368.782 271.911 368.315 270.573 367.848 269.234C365.97 263.852 364.093 258.469 362.215 253.086C350.164 218.534 338.112 183.981 325.849 149.503C322.658 140.53 319.489 131.551 316.386 122.546C315.558 120.156 314.729 117.765 313.9 115.375C313.147 113.192 312.405 111.005 311.663 108.817C311.216 107.526 310.768 106.236 310.319 104.945C309.941 103.836 309.562 102.728 309.171 101.586C308.145 98.7148 308.145 98.7148 304.999 96.9996C301.894 96.7225 301.894 96.7225 298.362 96.8043C296.414 96.814 296.414 96.814 294.427 96.8238C293.055 96.8405 291.683 96.8575 290.312 96.8746C288.928 96.8846 287.545 96.8938 286.161 96.9019C282.774 96.9256 279.386 96.9585 275.999 96.9996C277.523 104.846 280.016 112.196 282.683 119.722C283.144 121.035 283.605 122.348 284.065 123.662C285.271 127.098 286.483 130.532 287.696 133.965C288.681 136.756 289.662 139.548 290.642 142.34C295.558 156.532 295.558 156.532 300.773 170.615C302.141 174.392 302.535 177.017 301.999 181C300.562 183.5 300.562 183.5 297.999 185C294.916 185.021 292.023 184.55 288.999 184C288.586 182.751 288.172 181.503 287.746 180.217C285.886 174.638 283.971 169.078 282.05 163.519C281.674 162.43 281.297 161.341 280.91 160.218C280.114 157.916 279.318 155.614 278.522 153.312C277.331 149.868 276.143 146.423 274.954 142.978C272.652 136.313 270.333 129.654 267.999 123C267.623 121.926 267.247 120.852 266.859 119.746C265.783 116.685 264.696 113.629 263.605 110.574C263.284 109.661 262.964 108.749 262.633 107.809C262.33 106.968 262.027 106.127 261.715 105.26C261.324 104.165 261.324 104.165 260.926 103.048C259.847 100.664 258.813 98.8975 256.999 96.9996C254.794 96.4097 254.794 96.4097 252.3 96.5138C250.873 96.5045 250.873 96.5045 249.418 96.4951C248.393 96.5095 247.368 96.5239 246.312 96.5387C245.258 96.5396 244.203 96.5405 243.117 96.5414C240.888 96.5475 238.659 96.5633 236.43 96.588C233.012 96.6245 229.596 96.629 226.179 96.6285C224.015 96.6383 221.851 96.65 219.687 96.6637C218.662 96.6659 217.636 96.6681 216.58 96.6704C215.629 96.6832 214.678 96.6959 213.698 96.7091C212.861 96.7167 212.024 96.7243 211.162 96.7322C208.705 96.8719 208.705 96.8719 205.999 98.9996Z" fill="#1E1E1E"/>
<path d="M8.79184 0.61264C9.76295 0.603184 10.7341 0.593727 11.7346 0.583984C13.305 0.593093 13.305 0.593093 14.9071 0.602386C16.5214 0.598081 16.5214 0.598081 18.1684 0.593689C20.4448 0.591647 22.7211 0.597188 24.9974 0.609711C28.4872 0.625761 31.9759 0.609867 35.4657 0.590668C37.6753 0.59265 39.8849 0.596494 42.0946 0.602386C43.1415 0.596314 44.1884 0.590241 45.2671 0.583984C46.7237 0.598169 46.7237 0.598169 48.2098 0.61264C49.0646 0.615027 49.9193 0.617414 50.8 0.619873C53.5251 1.09157 54.4142 1.75345 56.0008 4.00082C56.3414 5.90195 56.3414 5.90195 56.2938 8.01254C56.2793 9.14853 56.2793 9.14853 56.2645 10.3075C56.2394 11.0931 56.2142 11.8788 56.1883 12.6883C56.168 13.8843 56.168 13.8843 56.1473 15.1043C56.112 17.0701 56.0582 19.0356 56.0008 21.0008C56.5705 20.9942 57.1401 20.9875 57.727 20.9806C63.6477 20.9143 69.5683 20.869 75.4893 20.836C77.7 20.8209 79.9106 20.8004 82.1212 20.7745C85.296 20.7382 88.4704 20.7211 91.6454 20.7079C92.6361 20.6924 93.6268 20.6769 94.6475 20.6609C95.5682 20.6607 96.489 20.6605 97.4376 20.6602C98.2481 20.6536 99.0586 20.6469 99.8937 20.6401C102.528 21.091 103.379 21.9161 105.001 24.0008C106.043 27.0474 106.125 28.5888 105.188 31.6883C104.001 34.0008 104.001 34.0008 102.001 36.0008C100.014 36.2413 100.014 36.2413 97.5511 36.2279C96.6303 36.2277 95.7095 36.2276 94.7608 36.2274C93.7649 36.2171 92.7691 36.2068 91.743 36.1961C90.7248 36.1933 89.7066 36.1905 88.6576 36.1876C85.3969 36.1763 82.1364 36.1512 78.8758 36.1258C76.6688 36.1158 74.4618 36.1067 72.2547 36.0985C66.8367 36.0764 61.4188 36.0429 56.0008 36.0008C56.053 37.7894 56.053 37.7894 56.1063 39.6141C56.1344 41.1805 56.1617 42.7469 56.1883 44.3133C56.2135 45.099 56.2386 45.8847 56.2645 46.6942C56.2742 47.4515 56.2838 48.2088 56.2938 48.9891C56.3095 49.6856 56.3252 50.3821 56.3414 51.0997C56.0008 53.0008 56.0008 53.0008 53.0008 56.0008C47.3908 56.0008 41.7808 56.0008 36.0008 56.0008C36.0008 115.401 36.0008 174.801 36.0008 236.001C39.3008 236.001 42.6008 236.001 46.0008 236.001C48.5926 237.536 48.5926 237.536 50.0008 240.001C50.3994 242.622 50.563 244.817 50.5321 247.434C50.5359 248.149 50.5397 248.864 50.5437 249.601C50.5464 251.11 50.539 252.618 50.5223 254.127C50.5009 256.428 50.5221 258.726 50.5477 261.026C50.5451 262.496 50.5399 263.965 50.5321 265.434C50.5402 266.118 50.5483 266.801 50.5566 267.506C50.4936 270.742 49.9805 273.044 48.5926 275.974C46.0008 278.001 46.0008 278.001 36.0008 278.001C36.0008 337.401 36.0008 396.801 36.0008 458.001C41.6108 458.001 47.2208 458.001 53.0008 458.001C54.4858 459.486 54.4858 459.486 56.0008 461.001C56.0008 466.611 56.0008 472.221 56.0008 478.001C115.401 478.001 174.801 478.001 236.001 478.001C236.001 474.701 236.001 471.401 236.001 468.001C237.52 465.409 237.52 465.409 240.001 464.001C242.703 463.603 244.99 463.439 247.688 463.47C248.428 463.466 249.167 463.462 249.929 463.458C251.489 463.455 253.049 463.463 254.609 463.479C256.993 463.501 259.375 463.48 261.759 463.454C263.277 463.457 264.795 463.462 266.313 463.47C267.024 463.461 267.734 463.453 268.466 463.445C271.587 463.504 273.755 463.861 276.481 465.409C278.224 468.381 278.162 469.774 278.096 473.163C278.082 474.068 278.068 474.972 278.054 475.904C278.037 476.596 278.019 477.288 278.001 478.001C278.575 477.998 279.15 477.995 279.742 477.992C293.712 477.926 307.683 477.877 321.654 477.845C328.411 477.83 335.167 477.809 341.923 477.775C348.439 477.741 354.955 477.724 361.472 477.716C363.962 477.711 366.452 477.7 368.942 477.684C372.421 477.662 375.9 477.659 379.379 477.66C380.934 477.644 380.934 477.644 382.52 477.628C383.466 477.632 384.413 477.636 385.388 477.64C386.211 477.637 387.034 477.635 387.883 477.632C390.513 478.09 391.394 478.906 393.001 481.001C393.399 483.157 393.399 483.157 393.376 485.501C393.384 486.274 393.391 487.048 393.399 487.845C392.898 490.559 392.154 491.306 390.001 493.001C387.883 493.37 387.883 493.37 385.388 493.362C383.968 493.368 383.968 493.368 382.52 493.374C381.483 493.363 380.447 493.353 379.379 493.341C377.74 493.342 377.74 493.342 376.067 493.343C372.447 493.341 368.828 493.317 365.208 493.294C362.701 493.288 360.194 493.284 357.688 493.281C351.759 493.271 345.83 493.247 339.902 493.217C332.49 493.18 325.079 493.164 317.667 493.147C304.445 493.115 291.223 493.064 278.001 493.001C278.025 493.693 278.048 494.384 278.073 495.097C278.091 496.002 278.11 496.907 278.129 497.839C278.152 498.737 278.176 499.635 278.2 500.56C278.001 503.001 278.001 503.001 275.958 505.593C272.323 507.324 269.713 507.518 265.688 507.532C264.997 507.536 264.306 507.54 263.593 507.544C262.138 507.546 260.682 507.539 259.226 507.522C257.007 507.501 254.791 507.522 252.571 507.548C251.152 507.545 249.733 507.54 248.313 507.532C246.389 507.525 246.389 507.525 244.427 507.518C240.253 506.888 238.63 506.336 236.001 503.001C236.001 499.701 236.001 496.401 236.001 493.001C176.601 493.001 117.201 493.001 56.0008 493.001C56.0008 498.611 56.0008 504.221 56.0008 510.001C52.7188 513.283 52.5054 513.377 48.2098 513.389C47.2387 513.398 46.2676 513.408 45.2671 513.418C44.2201 513.412 43.1732 513.406 42.0946 513.399C41.0183 513.402 39.9421 513.405 38.8332 513.408C36.5569 513.41 34.2805 513.404 32.0042 513.392C28.5144 513.376 25.0258 513.392 21.536 513.411C19.3263 513.409 17.1167 513.405 14.9071 513.399C13.8602 513.405 12.8132 513.411 11.7346 513.418C10.7635 513.408 9.79237 513.399 8.79184 513.389C7.50969 513.385 7.50969 513.385 6.20163 513.382C4.00082 513.001 4.00082 513.001 2.22565 511.776C0.628022 509.461 0.620469 508.013 0.61264 505.21C0.603184 504.239 0.593727 503.268 0.583984 502.267C0.590057 501.22 0.59613 500.173 0.602386 499.095C0.599516 498.018 0.596646 496.942 0.593689 495.833C0.591647 493.557 0.597188 491.281 0.609711 489.004C0.625761 485.514 0.609867 482.026 0.590668 478.536C0.59265 476.326 0.596494 474.117 0.602386 471.907C0.596314 470.86 0.590241 469.813 0.583984 468.735C0.593441 467.763 0.602897 466.792 0.61264 465.792C0.615027 464.937 0.617414 464.082 0.619873 463.202C1.00082 461.001 1.00082 461.001 4.00082 458.001C9.61082 458.001 15.2208 458.001 21.0008 458.001C21.0008 398.601 21.0008 339.201 21.0008 278.001C17.7008 278.001 14.4008 278.001 11.0008 278.001C8.40903 276.481 8.40903 276.481 7.00082 274.001C6.60259 271.299 6.43882 269.012 6.46957 266.313C6.46575 265.574 6.46192 264.834 6.45798 264.072C6.45526 262.512 6.4626 260.952 6.47934 259.392C6.50076 257.008 6.47953 254.627 6.45395 252.243C6.45659 250.725 6.46172 249.207 6.46957 247.688C6.46148 246.978 6.45338 246.267 6.44504 245.535C6.50399 242.415 6.86114 240.247 8.40903 237.52C11.0008 236.001 11.0008 236.001 21.0008 236.001C21.0008 176.601 21.0008 117.201 21.0008 56.0008C15.3908 56.0008 9.78082 56.0008 4.00082 56.0008C0.718781 52.7188 0.624635 52.5054 0.61264 48.2098C0.603184 47.2387 0.593727 46.2676 0.583984 45.2671C0.590057 44.2201 0.59613 43.1732 0.602386 42.0946C0.599516 41.0183 0.596646 39.9421 0.593689 38.8332C0.591647 36.5569 0.597188 34.2805 0.609711 32.0042C0.625761 28.5144 0.609867 25.0258 0.590668 21.536C0.59265 19.3263 0.596494 17.1167 0.602386 14.9071C0.596314 13.8602 0.590241 12.8132 0.583984 11.7346C0.593441 10.7635 0.602897 9.79237 0.61264 8.79184C0.615027 7.93707 0.617414 7.0823 0.619873 6.20163C1.00082 4.00082 1.00082 4.00082 2.22565 2.22565C4.54114 0.628022 5.98832 0.620469 8.79184 0.61264ZM16.0008 16.0008C16.0008 24.2508 16.0008 32.5008 16.0008 41.0008C24.2508 41.0008 32.5008 41.0008 41.0008 41.0008C41.0008 32.7508 41.0008 24.5008 41.0008 16.0008C32.7508 16.0008 24.5008 16.0008 16.0008 16.0008ZM23.0008 251.001C23.0008 254.961 23.0008 258.921 23.0008 263.001C26.6308 263.001 30.2608 263.001 34.0008 263.001C34.0008 259.041 34.0008 255.081 34.0008 251.001C30.3708 251.001 26.7408 251.001 23.0008 251.001ZM16.0008 473.001C16.0008 481.251 16.0008 489.501 16.0008 498.001C24.2508 498.001 32.5008 498.001 41.0008 498.001C41.0008 489.751 41.0008 481.501 41.0008 473.001C32.7508 473.001 24.5008 473.001 16.0008 473.001ZM251.001 480.001C251.001 483.631 251.001 487.261 251.001 491.001C254.961 491.001 258.921 491.001 263.001 491.001C263.001 487.371 263.001 483.741 263.001 480.001C259.041 480.001 255.081 480.001 251.001 480.001Z" fill="#1E1E1E"/>
<path d="M465.791 0.61264C466.762 0.603184 467.734 0.593727 468.734 0.583984C470.304 0.593093 470.304 0.593093 471.907 0.602386C473.521 0.598081 473.521 0.598081 475.168 0.593689C477.444 0.591647 479.721 0.597188 481.997 0.609711C485.487 0.625761 488.975 0.609867 492.465 0.590668C494.675 0.59265 496.884 0.596494 499.094 0.602386C500.141 0.596314 501.188 0.590241 502.267 0.583984C503.723 0.598169 503.723 0.598169 505.209 0.61264C506.491 0.616221 506.491 0.616221 507.799 0.619873C510 1.00082 510 1.00082 511.775 2.22565C513.373 4.54114 513.381 5.98832 513.388 8.79184C513.398 9.76295 513.407 10.7341 513.417 11.7346C513.408 13.305 513.408 13.305 513.399 14.9071C513.402 15.9833 513.404 17.0596 513.407 18.1684C513.409 20.4448 513.404 22.7211 513.391 24.9974C513.375 28.4872 513.391 31.9759 513.41 35.4657C513.408 37.6753 513.405 39.8849 513.399 42.0946C513.405 43.1415 513.411 44.1884 513.417 45.2671C513.408 46.2382 513.398 47.2093 513.388 48.2098C513.386 49.0646 513.384 49.9193 513.381 50.8C513 53.0008 513 53.0008 510 56.0008C504.39 56.0008 498.78 56.0008 493 56.0008C493 115.401 493 174.801 493 236.001C496.3 236.001 499.6 236.001 503 236.001C505.592 237.536 505.592 237.536 507 240.001C507.399 242.622 507.562 244.817 507.532 247.434C507.535 248.149 507.539 248.864 507.543 249.601C507.546 251.11 507.538 252.618 507.522 254.127C507.5 256.428 507.522 258.726 507.547 261.026C507.545 262.496 507.539 263.965 507.532 265.434C507.54 266.118 507.548 266.801 507.556 267.506C507.493 270.742 506.98 273.044 505.592 275.974C503 278.001 503 278.001 493 278.001C493 337.401 493 396.801 493 458.001C498.61 458.001 504.22 458.001 510 458.001C513.282 461.283 513.376 461.496 513.388 465.792C513.398 466.763 513.407 467.734 513.417 468.735C513.408 470.305 513.408 470.305 513.399 471.907C513.402 472.983 513.404 474.06 513.407 475.168C513.409 477.445 513.404 479.721 513.391 481.997C513.375 485.487 513.391 488.976 513.41 492.466C513.408 494.675 513.405 496.885 513.399 499.095C513.405 500.141 513.411 501.188 513.417 502.267C513.408 503.238 513.398 504.209 513.388 505.21C513.386 506.065 513.384 506.919 513.381 507.8C513 510.001 513 510.001 511.775 511.776C509.46 513.374 508.013 513.381 505.209 513.389C504.238 513.398 503.267 513.408 502.267 513.418C501.22 513.412 500.173 513.406 499.094 513.399C498.018 513.402 496.942 513.405 495.833 513.408C493.556 513.41 491.28 513.404 489.004 513.392C485.514 513.376 482.025 513.392 478.535 513.411C476.326 513.409 474.116 513.405 471.907 513.399C470.86 513.405 469.813 513.411 468.734 513.418C467.763 513.408 466.792 513.399 465.791 513.389C464.509 513.385 464.509 513.385 463.201 513.382C460.476 512.91 459.587 512.248 458 510.001C457.66 508.1 457.66 508.1 457.707 505.989C457.717 505.232 457.727 504.474 457.737 503.694C457.774 502.516 457.774 502.516 457.813 501.313C457.833 500.117 457.833 500.117 457.854 498.897C457.889 496.932 457.943 494.966 458 493.001C456.744 493.017 455.487 493.032 454.192 493.048C449.535 493.103 444.878 493.137 440.221 493.166C438.204 493.181 436.187 493.201 434.171 493.227C431.274 493.263 428.378 493.281 425.481 493.294C424.126 493.317 424.126 493.317 422.744 493.341C421.903 493.341 421.062 493.341 420.196 493.341C419.087 493.351 419.087 493.351 417.956 493.362C415.439 492.897 414.558 491.992 413 490.001C412.602 487.845 412.602 487.845 412.625 485.501C412.618 484.727 412.61 483.954 412.602 483.157C413.101 480.453 413.87 479.701 416 478.001C417.956 477.64 417.956 477.64 420.196 477.66C421.457 477.661 421.457 477.661 422.744 477.661C423.647 477.676 424.55 477.692 425.481 477.708C426.409 477.712 427.337 477.716 428.293 477.721C431.258 477.738 434.223 477.775 437.188 477.813C439.198 477.828 441.207 477.842 443.217 477.854C448.145 477.887 453.073 477.939 458 478.001C457.965 476.808 457.931 475.616 457.895 474.388C457.867 472.821 457.839 471.255 457.813 469.688C457.775 468.51 457.775 468.51 457.737 467.307C457.727 466.55 457.717 465.793 457.707 465.013C457.692 464.316 457.676 463.62 457.66 462.902C458 461.001 458 461.001 461 458.001C466.61 458.001 472.22 458.001 478 458.001C478 398.601 478 339.201 478 278.001C474.7 278.001 471.4 278.001 468 278.001C465.408 276.481 465.408 276.481 464 274.001C463.602 271.299 463.438 269.012 463.469 266.313C463.463 265.204 463.463 265.204 463.457 264.072C463.455 262.512 463.462 260.952 463.479 259.392C463.5 257.008 463.479 254.627 463.453 252.243C463.456 250.725 463.461 249.207 463.469 247.688C463.461 246.978 463.453 246.267 463.444 245.535C463.503 242.415 463.861 240.247 465.408 237.52C468 236.001 468 236.001 478 236.001C478 176.601 478 117.201 478 56.0008C472.39 56.0008 466.78 56.0008 461 56.0008C459.515 54.5158 459.515 54.5158 458 53.0008C458 47.3908 458 41.7808 458 36.0008C398.6 36.0008 339.2 36.0008 278 36.0008C278 39.3008 278 42.6008 278 46.0008C275.371 49.3359 273.748 49.8879 269.574 50.5184C268.292 50.5229 267.009 50.5274 265.688 50.5321C264.996 50.5359 264.305 50.5397 263.593 50.5437C262.137 50.5464 260.681 50.5391 259.226 50.5223C257.006 50.5009 254.79 50.5221 252.571 50.5477C251.151 50.5451 249.732 50.5399 248.313 50.5321C247.03 50.5276 245.748 50.5231 244.426 50.5184C240.253 49.8879 238.629 49.3359 236 46.0008C235.801 43.5602 235.801 43.5602 235.873 40.8388C235.891 39.9341 235.909 39.0294 235.928 38.0972C235.952 37.4054 235.976 36.7136 236 36.0008C234.022 36.0141 234.022 36.0141 232.003 36.0277C219.584 36.1088 207.165 36.1688 194.745 36.2081C188.36 36.229 181.975 36.2573 175.59 36.3026C169.43 36.346 163.271 36.3699 157.111 36.3803C154.759 36.3877 152.406 36.4022 150.054 36.4237C146.764 36.4527 143.475 36.4568 140.185 36.4549C139.208 36.4693 138.231 36.4837 137.225 36.4985C130.66 36.4583 130.66 36.4583 127.391 34.1912C125.356 30.9857 125.536 28.7167 126 25.0008C127.251 22.8121 127.251 22.8121 129 21.0008C131.04 20.5086 131.04 20.5086 133.423 20.5198C134.78 20.5116 134.78 20.5116 136.164 20.5031C137.154 20.5175 138.143 20.5319 139.163 20.5467C140.207 20.5461 141.251 20.5456 142.327 20.545C145.785 20.5477 149.242 20.5789 152.699 20.6102C155.094 20.6177 157.489 20.6234 159.884 20.6273C166.192 20.6426 172.499 20.6819 178.807 20.7262C185.242 20.7671 191.677 20.7853 198.112 20.8055C210.741 20.8484 223.371 20.916 236 21.0008C235.983 20.309 235.965 19.6172 235.947 18.9044C235.926 17.5473 235.926 17.5473 235.905 16.1628C235.888 15.2648 235.87 14.3667 235.852 13.4414C236 11.0008 236 11.0008 237.52 8.40903C240.891 6.49524 243.911 6.42654 247.688 6.46957C248.797 6.46383 248.797 6.46383 249.929 6.45798C251.489 6.45526 253.049 6.4626 254.609 6.47934C256.993 6.50076 259.374 6.47953 261.758 6.45395C263.276 6.45659 264.795 6.46172 266.313 6.46957C267.379 6.45743 267.379 6.45743 268.466 6.44504C271.586 6.50399 273.754 6.86114 276.481 8.40903C278 11.0008 278 11.0008 278 21.0008C337.4 21.0008 396.8 21.0008 458 21.0008C458 15.3908 458 9.78082 458 4.00082C461.282 0.718781 461.496 0.624635 465.791 0.61264ZM473 16.0008C473 24.2508 473 32.5008 473 41.0008C481.25 41.0008 489.5 41.0008 498 41.0008C498 32.7508 498 24.5008 498 16.0008C489.75 16.0008 481.5 16.0008 473 16.0008ZM251 23.0008C251 26.6308 251 30.2608 251 34.0008C254.96 34.0008 258.92 34.0008 263 34.0008C263 30.3708 263 26.7408 263 23.0008C259.04 23.0008 255.08 23.0008 251 23.0008ZM480 251.001C480 254.961 480 258.921 480 263.001C483.63 263.001 487.26 263.001 491 263.001C491 259.041 491 255.081 491 251.001C487.37 251.001 483.74 251.001 480 251.001ZM473 473.001C473 481.251 473 489.501 473 498.001C481.25 498.001 489.5 498.001 498 498.001C498 489.751 498 481.501 498 473.001C489.75 473.001 481.5 473.001 473 473.001Z" fill="#1E1E1E"/>
<path d="M237.999 143C240.307 145.653 241.596 148.153 242.722 151.466C243.181 152.798 243.181 152.798 243.649 154.156C243.974 155.12 244.298 156.085 244.632 157.078C244.981 158.096 245.33 159.113 245.689 160.161C246.444 162.366 247.196 164.571 247.945 166.777C249.96 172.712 251.999 178.639 254.034 184.567C254.45 185.78 254.866 186.993 255.295 188.244C258.966 198.944 262.728 209.61 266.522 220.268C272.496 237.052 278.431 253.85 284.297 270.672C285.048 272.825 285.801 274.977 286.556 277.129C287.603 280.114 288.644 283.102 289.683 286.09C289.99 286.963 290.298 287.836 290.614 288.735C295.676 303.376 295.676 303.376 293.749 308C291.806 310.221 290.904 310.939 287.968 311.137C287.127 311.143 286.286 311.148 285.42 311.154C284.455 311.163 283.49 311.171 282.497 311.18C281.435 311.184 280.373 311.189 279.279 311.193C278.163 311.201 277.048 311.209 275.898 311.218C272.195 311.243 268.492 311.259 264.788 311.274C262.895 311.282 262.895 311.282 260.964 311.29C255.663 311.311 250.361 311.33 245.06 311.341C237.46 311.358 229.861 311.391 222.261 311.448C216.275 311.491 210.288 311.507 204.302 311.513C201.754 311.52 199.206 311.536 196.658 311.559C193.098 311.591 189.539 311.591 185.978 311.584C184.92 311.6 183.862 311.616 182.773 311.633C175.643 311.572 175.643 311.572 172.339 308.638C170.059 304.151 170.684 300.694 172.138 296.054C172.667 294.539 173.206 293.028 173.753 291.52C174.045 290.692 174.336 289.865 174.637 289.012C175.603 286.276 176.582 283.544 177.562 280.813C178.251 278.866 178.94 276.919 179.628 274.972C181.052 270.941 182.481 266.912 183.913 262.883C186.702 255.028 189.442 247.156 192.18 239.283C193.069 236.727 193.961 234.172 194.854 231.617C198.068 222.416 201.274 213.212 204.464 204.003C206.455 198.256 208.449 192.51 210.446 186.765C211.685 183.201 212.921 179.636 214.153 176.069C215.318 172.695 216.489 169.323 217.663 165.952C218.304 164.107 218.939 162.261 219.575 160.414C225.233 144.208 225.233 144.208 229.374 141.375C232.857 140.878 234.836 141.487 237.999 143ZM231.999 175C231.623 176.078 231.247 177.155 230.86 178.265C230.608 178.989 230.355 179.713 230.095 180.458C229.517 182.116 228.938 183.774 228.36 185.432C226.705 190.177 225.05 194.921 223.395 199.665C220.266 208.631 217.139 217.597 214.016 226.565C212.741 230.228 211.465 233.89 210.189 237.553C209.563 239.35 208.937 241.147 208.311 242.944C205.111 252.136 201.896 261.322 198.612 270.485C198.218 271.586 198.218 271.586 197.816 272.709C196.599 276.11 195.378 279.508 194.147 282.903C193.728 284.07 193.309 285.236 192.878 286.438C192.33 287.952 192.33 287.952 191.771 289.496C190.852 292.041 190.852 292.041 190.999 295C201.229 295 211.459 295 221.999 295C225.155 287.169 225.155 287.169 228.042 279.266C228.389 278.261 228.736 277.256 229.094 276.221C229.635 274.644 229.635 274.644 230.187 273.035C230.571 271.921 230.955 270.807 231.351 269.66C232.57 266.128 233.784 262.595 234.999 259.063C236.214 255.534 237.43 252.005 238.647 248.476C239.4 246.291 240.153 244.105 240.904 241.918C241.251 240.91 241.598 239.902 241.956 238.864C242.289 237.885 242.623 236.906 242.966 235.898C243.659 233.954 244.399 232.027 245.184 230.119C249.112 220.422 247.573 213.652 244.128 204.063C243.704 202.853 243.704 202.853 243.272 201.62C242.679 199.934 242.082 198.25 241.479 196.568C240.556 193.983 239.65 191.393 238.747 188.801C238.167 187.159 237.585 185.517 237.003 183.875C236.732 183.099 236.461 182.323 236.182 181.524C235.008 177.533 235.008 177.533 231.999 175ZM255.999 245C253.576 251.959 251.155 258.92 248.736 265.88C247.912 268.25 247.087 270.62 246.262 272.99C245.079 276.387 243.898 279.785 242.718 283.184C242.346 284.25 241.974 285.317 241.591 286.416C241.251 287.397 240.91 288.378 240.56 289.389C240.258 290.257 239.956 291.125 239.644 292.02C238.947 293.811 238.947 293.811 238.999 295C250.879 295 262.759 295 274.999 295C273.005 288.354 270.951 281.807 268.644 275.274C268.337 274.4 268.031 273.526 267.715 272.626C266.749 269.875 265.78 267.125 264.812 264.375C264.151 262.494 263.49 260.612 262.829 258.731C261.221 254.153 259.611 249.576 257.999 245C257.339 245 256.679 245 255.999 245Z" fill="#1E1E1E"/>
</svg>
